# xmcd
# 
# Track frame offsets:
#     150
#     5362
#     30375
#     54050
#     73312
#     92975
#     114787
#     140432
#     159225
#     187500
#     212400
#     231562
# 
# Disc length: 3459
# 
# Revision: 1
# Processed by: cddbd v1.5.2PL0 Copyright (c) Steve Scherf et al.
# Submitted via: BonkEnc v1.0
# 
DISCID=8d0d810c
DTITLE=宗次郎 - 風人
DYEAR=0
DGENRE=New Age
TTITLE0=凪
TTITLE1=風の神
TTITLE2=風に揺れる木々たちと
TTITLE3=鳥たちの森で
TTITLE4=風が谷間を降りてくる
TTITLE5=林をくぐりぬけて
TTITLE6=流れる雲に
TTITLE7=風の祭り
TTITLE8=朝
TTITLE9=風人
TTITLE10=光に向かって
TTITLE11=いにしへの風
EXTD=
EXTT0=
EXTT1=
EXTT2=
EXTT3=
EXTT4=
EXTT5=
EXTT6=
EXTT7=
EXTT8=
EXTT9=
EXTT10=
EXTT11=
PLAYORDER=
